<svg width="184" height="91" viewBox="0 0 184 91" fill="none" xmlns="http://www.w3.org/2000/svg">
<path opacity="0.9" d="M84.2116 68.0006C79.2737 76.5795 71.6517 83.2841 62.5282 87.0748C53.4047 90.8654 43.2892 91.5305 33.7506 88.9668C24.2119 86.4031 15.7828 80.7538 9.77085 72.8949C3.75885 65.0359 0.500001 55.4064 0.5 45.5C0.499999 35.5936 3.75884 25.9641 9.77084 18.1052C15.7828 10.2462 24.2119 4.59695 33.7505 2.03324C43.2892 -0.530462 53.4047 0.134555 62.5282 3.92521C71.6517 7.71588 79.2737 14.4205 84.2116 22.9994" stroke="#333333"/>
<path opacity="0.9" d="M73.7497 73.9774C68.1347 79.6096 60.9811 83.4449 53.1933 84.9987C45.4057 86.5525 37.3335 85.7551 29.9975 82.7071C22.6616 79.6592 16.3912 74.4975 11.9794 67.8747C7.5677 61.2518 5.21285 53.4653 5.21284 45.4998C5.21284 37.5343 7.56769 29.7477 11.9794 23.1249C16.3912 16.502 22.6616 11.3404 29.9975 8.29242C37.3335 5.24447 45.4056 4.44701 53.1933 6.00082C60.981 7.55463 68.1347 11.39 73.7497 17.0221" stroke="#333333"/>
<path opacity="0.9" d="M63.0782 76.2836C57.6914 79.4032 51.581 81.0455 45.3611 81.0455C39.1412 81.0455 33.0307 79.4032 27.644 76.2836C22.2572 73.1641 17.7837 68.677 14.6735 63.2734C11.5632 57.8697 9.92568 51.7399 9.92567 45.5001C9.92567 39.2602 11.5632 33.1304 14.6734 27.7267C17.7837 22.3231 22.2572 17.836 27.6439 14.7164C33.0307 11.5969 39.1412 9.95459 45.3611 9.95459C51.581 9.95459 57.6914 11.5969 63.0782 14.7164" stroke="#333333"/>
<path d="M56.6077 38.0666L51.1652 39.0335C50.9376 38.3352 50.5761 37.6704 50.0807 37.0392C49.5987 36.408 48.9426 35.891 48.1125 35.4881C47.2824 35.0852 46.2448 34.8837 44.9996 34.8837C43.2993 34.8837 41.8801 35.2665 40.742 36.032C39.604 36.784 39.035 37.7577 39.035 38.9529C39.035 39.987 39.4165 40.8197 40.1797 41.4509C40.9429 42.0821 42.1746 42.5991 43.875 43.002L48.7753 44.1301C51.6137 44.7882 53.7291 45.8021 55.1215 47.172C56.514 48.5418 57.2102 50.3212 57.2102 52.5103C57.2102 54.3636 56.6746 56.0154 55.6035 57.4659C54.5458 58.9028 53.0664 60.0309 51.1652 60.8502C49.2774 61.6694 47.0883 62.079 44.598 62.079C41.1437 62.079 38.3254 61.3403 36.143 59.8631C33.9606 58.3724 32.6217 56.2572 32.1264 53.5175L37.9304 52.6311C38.2919 54.1487 39.035 55.297 40.1596 56.0759C41.2843 56.8414 42.7503 57.2241 44.5578 57.2241C46.526 57.2241 48.0991 56.8145 49.2773 55.9953C50.4556 55.1627 51.0447 54.1487 51.0447 52.9535C51.0447 51.9865 50.6832 51.174 49.9602 50.516C49.2506 49.8579 48.1594 49.361 46.6866 49.0253L41.465 47.877C38.5864 47.219 36.4576 46.1714 35.0786 44.7345C33.7129 43.2975 33.0301 41.4777 33.0301 39.2753C33.0301 37.4488 33.5389 35.8507 34.5564 34.4808C35.574 33.111 36.9798 32.0433 38.7739 31.2778C40.568 30.4989 42.6231 30.1095 44.9394 30.1095C48.2732 30.1095 50.8974 30.8347 52.812 32.2851C54.7266 33.7221 55.9918 35.6492 56.6077 38.0666Z" fill="#333333"/>
<path d="M70.4333 62.1394C68.4785 62.1394 66.7112 61.7768 65.1313 61.0516C63.5514 60.313 62.2996 59.2453 61.3758 57.8486C60.4653 56.4519 60.0101 54.7396 60.0101 52.7117C60.0101 50.9659 60.3448 49.5289 61.0143 48.4008C61.6837 47.2727 62.5874 46.3796 63.7255 45.7215C64.8635 45.0635 66.1355 44.5666 67.5413 44.2308C68.9471 43.8951 70.3797 43.6399 71.8391 43.4653C73.6867 43.2505 75.1863 43.0759 76.3377 42.9416C77.4891 42.7939 78.3259 42.5588 78.8481 42.2365C79.3702 41.9142 79.6313 41.3904 79.6313 40.6652V40.5242C79.6313 38.7649 79.1359 37.4018 78.1452 36.4349C77.1678 35.4679 75.7084 34.9845 73.7671 34.9845C71.7453 34.9845 70.1521 35.4343 68.9873 36.3341C67.8358 37.2205 67.0392 38.2076 66.5974 39.2954L60.954 38.0061C61.6235 36.126 62.6008 34.6084 63.8862 33.4535C65.1849 32.2851 66.6777 31.439 68.3647 30.9152C70.0517 30.378 71.8257 30.1095 73.6867 30.1095C74.9185 30.1095 76.2239 30.2572 77.6029 30.5526C78.9954 30.8347 80.2941 31.3584 81.4991 32.1239C82.7174 32.8894 83.7149 33.9839 84.4914 35.4075C85.268 36.8176 85.6563 38.6508 85.6563 40.907V61.4545H79.792V57.2241H79.551C79.1627 58.003 78.5803 58.7685 77.8038 59.5206C77.0272 60.2727 76.0298 60.8972 74.8114 61.3941C73.593 61.891 72.1336 62.1394 70.4333 62.1394ZM71.7387 57.3047C73.3989 57.3047 74.8181 56.9757 75.9963 56.3176C77.1879 55.6596 78.0916 54.8001 78.7075 53.7391C79.3368 52.6647 79.6514 51.5165 79.6514 50.2944V46.3057C79.4372 46.5206 79.0221 46.7221 78.4063 46.9101C77.8038 47.0847 77.1142 47.2391 76.3377 47.3734C75.5611 47.4943 74.8047 47.6084 74.0683 47.7159C73.3319 47.8099 72.716 47.8904 72.2206 47.9576C71.0558 48.1053 69.9914 48.3538 69.0274 48.7029C68.0768 49.0521 67.3137 49.5557 66.738 50.2138C66.1756 50.8584 65.8945 51.7179 65.8945 52.7923C65.8945 54.283 66.4434 55.4111 67.5413 56.1766C68.6392 56.9287 70.0383 57.3047 71.7387 57.3047Z" fill="#333333"/>
<path d="M104.519 30.5123V35.3471H87.6696V30.5123H104.519ZM92.1883 23.0991H98.1932V52.3693C98.1932 53.5377 98.3672 54.4173 98.7153 55.0082C99.0634 55.5857 99.5119 55.9819 100.061 56.1967C100.623 56.3982 101.232 56.4989 101.888 56.4989C102.37 56.4989 102.792 56.4653 103.154 56.3982C103.515 56.331 103.796 56.2773 103.997 56.237L105.082 61.2128C104.734 61.3471 104.238 61.4814 103.596 61.6157C102.953 61.7634 102.15 61.844 101.186 61.8574C99.6057 61.8843 98.1329 61.6022 96.7673 61.0113C95.4016 60.4204 94.297 59.5072 93.4535 58.2716C92.61 57.0361 92.1883 55.485 92.1883 53.6182V23.0991Z" fill="#333333"/>
<path d="M127.168 48.6224V30.5123H133.193V61.4545H127.289V56.096H126.967C126.258 57.7479 125.12 59.1244 123.553 60.2257C122 61.3135 120.065 61.8574 117.749 61.8574C115.768 61.8574 114.014 61.4209 112.487 60.548C110.974 59.6616 109.783 58.3522 108.913 56.6198C108.056 54.8873 107.627 52.7453 107.627 50.1936V30.5123H113.632V49.4684C113.632 51.5769 114.214 53.2556 115.379 54.5046C116.544 55.7536 118.057 56.378 119.918 56.378C121.043 56.378 122.161 56.096 123.272 55.532C124.397 54.9679 125.327 54.1151 126.064 52.9736C126.813 51.8321 127.181 50.3817 127.168 48.6224Z" fill="#333333"/>
<path d="M137.727 61.4545V30.5123H143.531V35.4276H143.852C144.414 33.7623 145.405 32.4529 146.824 31.4994C148.257 30.5325 149.877 30.049 151.685 30.049C152.059 30.049 152.501 30.0624 153.01 30.0893C153.532 30.1162 153.941 30.1497 154.235 30.19V35.9514C153.994 35.8842 153.566 35.8104 152.95 35.7298C152.334 35.6358 151.718 35.5888 151.102 35.5888C149.683 35.5888 148.418 35.891 147.306 36.4953C146.209 37.0862 145.338 37.9121 144.696 38.9731C144.053 40.0206 143.732 41.2159 143.732 42.5588V61.4545H137.727Z" fill="#333333"/>
<path d="M164.258 43.0826V61.4545H158.253V30.5123H164.017V35.5485H164.399C165.108 33.9101 166.22 32.594 167.733 31.6002C169.259 30.6064 171.18 30.1095 173.497 30.1095C175.599 30.1095 177.439 30.5526 179.019 31.439C180.599 32.3119 181.824 33.6146 182.695 35.3471C183.565 37.0795 184 39.2215 184 41.7732V61.4545H177.995V42.4984C177.995 40.2556 177.413 38.503 176.248 37.2407C175.083 35.9648 173.483 35.3269 171.448 35.3269C170.056 35.3269 168.817 35.6291 167.733 36.2334C166.662 36.8378 165.811 37.7241 165.182 38.8925C164.566 40.0475 164.258 41.4442 164.258 43.0826Z" fill="#333333"/>
</svg>
